# xmcd CD database file
#
# Track frame offsets:
#	150
#	23877
#	39750
#	62925
#	81905
#	97925
#	118775
#	142370
#	156682
#	179285
#	198175
#	223687
#	242490
#	271460
#	294702
#
# Disc length: 4120 seconds
#
# Revision: 1
# Processed by: cddbd v1.4PL0 Copyright (c) Steve Scherf et al.
# Submitted via: CDex 1.50
#
DISCID=e310160f
DTITLE=Various Artist - Los Van Van - 3 Decadas de su Musica
DYEAR=2000
DGENRE=Salsa
TTITLE0=Cesar Pedroso - Hoy Se Cumplen Seis Semanas
TTITLE1=Juan Formell - Chirrin Chirran
TTITLE2=Juan Formell - Sandunguera
TTITLE3=Juan Formell - La Titimania
TTITLE4=Juan Formell - La Habana Joven
TTITLE5=Samuel Formell - Somos Cubanos
TTITLE6=Cesar Pedroso - Disco Azucar
TTITLE7=Juan Formell - Marilu
TTITLE8=Manuel Aspra - Deja La Ira
TTITLE9=Juan Formell - Aqui Se Enciende La Candela
TTITLE10=Cesar Pedroso - El Buena Gente
TTITLE11=Cesar Pedroso - La Bomba Soy Yo
TTITLE12=Cesar Pedroso - Que Sorpresa
TTITLE13=Rodolfo Cardensas - Que Le Den Candela
TTITLE14=Juan Formell - El Buey Cansao
EXTD=YEAR: 2000
EXTT0=
EXTT1=
EXTT2=
EXTT3=
EXTT4=
EXTT5=
EXTT6=
EXTT7=
EXTT8=
EXTT9=
EXTT10=
EXTT11=
EXTT12=
EXTT13=
EXTT14=
PLAYORDER=
